<svg id="Capa_1" data-name="Capa 1" xmlns="http://www.w3.org/2000/svg" viewBox="0 0 314.82 298.48"><defs><style>.cls-1{fill:#da5353}.cls-2{fill:#ebb03b}.cls-3{fill:#fff}</style></defs><g id="_Grupo_" data-name="&lt;Grupo&gt;"><g id="_Grupo_2" data-name="&lt;Grupo&gt;"><path id="_Trazado_" data-name="&lt;Trazado&gt;" class="cls-1" d="M.6 238.2C2.3 215.2 0 129 0 114.3s8-19.8 23.1-19.8c15.3 0 30.2 1.3 45.4 1.1 18.4 0 37.2-2.1 55.3-1.7 26.3.5 52.7.9 79 1.2 10 .1 18.1 1.3 22.1 11.8 2.8 7.5 1.8 16.1 1.8 23.9 0 19.9-1 40.1.8 59.9 2.1 24 4.1 56.9-6.9 60.5s-20.3 4.3-59.9 4.3-103.3-2.7-121.2 0C21.8 258.2 0 259.3.6 238.2z"/><path id="_Trazado_2" data-name="&lt;Trazado&gt;" class="cls-1" d="M42.3 298a1.86 1.86 0 0 1-3.1-1.5c1.1-20.3.5-44.9 0-51-.5-6.5 51.5-1.5 46.9 5.5-4 6.3-32.3 36.8-43.8 47z"/><path id="_Trazado_3" data-name="&lt;Trazado&gt;" class="cls-1" d="M35.5 256.1c4.2-.6 4.2 1.7 4.2 3.4s11.1-5 11.1-5L48 243.7l-12.5-3.8-4.5 5z"/><path id="_Trazado_4" data-name="&lt;Trazado&gt;" class="cls-1" d="M79 259.8c3.9-3.9 5.8-5.4 12.8-5.3s-4.9-23.3-4.9-23.3L67 235v16.3z"/></g><g id="_Grupo_3" data-name="&lt;Grupo&gt;"><path id="_Trazado_5" data-name="&lt;Trazado&gt;" class="cls-2" d="M92.7 8c6.5-5.2 12.6-8 26.6-8s79.8 1 96.8 1.2S280.8 0 291.5 0s16.3 2.8 19.8 6.5 3.6 10.6 3.5 19.7c-.4 31.2 0 103 0 114.5 0 5.9-1.1 13.1-5.6 17.4-4.9 4.8-13.4 3.4-19.6 3.4-40.4 0-81.2.2-121.7 1.1l-17.8.3H122c-7.1-.1-14.2.7-21.4.2-12.3-.8-9.8-3.8-10.5-13.8-3-39.2-2.5-78.4-2.8-117.7v-.3c-.1-11.4 1.9-19 5.4-23.3z"/><path id="_Trazado_6" data-name="&lt;Trazado&gt;" class="cls-2" d="M273.8 203.6a.86.86 0 0 0 1.5-.6c.4-13.6 3.3-59.4 0-61.6-3.6-2.3-61.1 2.5-57.3 9s24.4 22.3 33.7 31c7.5 7.1 18.2 18.2 22.1 22.2z"/><path id="_Trazado_7" data-name="&lt;Trazado&gt;" class="cls-2" d="M283.1 161.5a6.33 6.33 0 0 0-6.3 5.7l-5.2-11.3 2-5 6.8-.3z"/><path id="_Trazado_8" data-name="&lt;Trazado&gt;" class="cls-2" d="M221.7 161.7a18.43 18.43 0 0 1 11.7 4c2.5 2.2 4.4-5.8 4.4-5.8l-8.5-8.3-10.5.1z"/></g><g id="_Grupo_4" data-name="&lt;Grupo&gt;"><g id="_Grupo_5" data-name="&lt;Grupo&gt;"><path id="_Trazado_9" data-name="&lt;Trazado&gt;" class="cls-3" d="M71.7 180.2a13.1 13.1 0 1 1-13.1-13.1 13.14 13.14 0 0 1 13.1 13.1z"/><path id="_Trazado_10" data-name="&lt;Trazado&gt;" class="cls-3" d="M126.8 180.2a13.1 13.1 0 1 1-13.1-13.1 13.14 13.14 0 0 1 13.1 13.1z"/><path id="_Trazado_11" data-name="&lt;Trazado&gt;" class="cls-3" d="M181.9 180.2a13.1 13.1 0 1 1-13.1-13.1 13.14 13.14 0 0 1 13.1 13.1z"/></g><g id="_Grupo_6" data-name="&lt;Grupo&gt;"><path id="_Trazado_12" data-name="&lt;Trazado&gt;" class="cls-3" d="M120.2 56.4h-7.6c-6.2 0-8.8-4.5-8.8-8.9a8.64 8.64 0 0 1 8.8-8.9h18.3c5.5 0 8.6 4 8.6 9.2v73.3c0 6.4-4.1 10.1-9.7 10.1s-9.7-3.6-9.7-10.1V56.4z"/><path id="_Trazado_compuesto_" data-name="&lt;Trazado compuesto&gt;" class="cls-3" d="M151.1 84.5c0-21 8.1-47.4 34.1-47.4s34.2 26.4 34.2 47.4-8.1 47.4-34.2 47.4-34.1-26.4-34.1-47.4zm48.2 0c0-9.8-.9-29.9-14-29.9s-14 20.1-14 29.9c0 9.1.9 29.9 14 29.9s14-20.7 14-29.9z"/><path id="_Trazado_compuesto_2" data-name="&lt;Trazado compuesto&gt;" class="cls-3" d="M225.1 84.5c0-21 8.1-47.4 34.2-47.4s34.1 26.4 34.1 47.4-8.1 47.4-34.1 47.4-34.2-26.4-34.2-47.4zm48.2 0c0-9.8-.9-29.9-14-29.9s-14 20.1-14 29.9c0 9.1.9 29.9 14 29.9s14-20.7 14-29.9z"/></g></g></g></svg>