<svg data-name="Capa 1" xmlns="http://www.w3.org/2000/svg" viewBox="0 0 315 310"><g data-name="&lt;Grupo&gt;"><path data-name="&lt;Trazado&gt;" d="M64.4 199.4c-31.7-2-39.9-4.6-50.5-18.5C3.5 167.3 0 151.4 0 133.9s16-41.1 35.7-50.5 27 1.2 26.8-4.4c-.3-6.8 5.7-26.5 28.4-33s33.1 3 37.5-5.6c3.6-6.9 12-23.1 34-32.4a109.92 109.92 0 0 1 40.5-8c11.8 0 31.3 8.4 44.3 18.6 14.2 11.2 22.4 29.5 23.2 43.5 2 33.1-16.4 32.4-.5 33 19.4.7 32.1-2.1 39.5 15.4 6.8 16.2 5.5 41.1 5.5 48.6s-2.8 21.6-16.3 28.5c-13 6.7-28.7 9.3-51.2 9.3s-71.9 3.7-89.9 5.2-62.5-.8-93.1-2.7z" fill="#da5353"/><path data-name="&lt;Trazado&gt;" d="M137.6 110.3c-13 0-14 7.3-28.8 32.4s-41 61.7-30.9 63.6 23 1.9 33.5 1.9 17.3-.6 7.9 6.2-22.9 18.9-35.1 25.4-8.4 11.3 6.2 10.3c21.5-1.5 23.3-1.5 19.8 5s-12.4 16.7-22.3 28.8-13 26.1-8 26.1 54.3-41.5 69.2-53.1c16-12.5 18.8-17.2 7.9-17.7-10.2-.4-20.8 3.7-7.1-7.8s59.6-45.9 42.6-46.2-39.7-.3-49.6.4 8.3-8.5 22-22.7 60.9-52.6 48-52.6-25.4.3-45.5 1.1c-11.6.5-29.8-1.1-29.8-1.1z" fill="#f2d982"/></g></svg>