<svg id="Capa_1" data-name="Capa 1" xmlns="http://www.w3.org/2000/svg" viewBox="0 0 302.2 315"><defs><style>.cls-2{fill:#d17c27}</style></defs><g id="_Grupo_" data-name="&lt;Grupo&gt;"><g id="_Grupo_2" data-name="&lt;Grupo&gt;"><path id="_Trazado_" data-name="&lt;Trazado&gt;" d="M151.1 0c-42.6 0-73 11.5-113 45C8.2 70 0 116.7 0 157.5c0 43 15.7 81.5 42.6 112.5 25.5 29.5 68.1 45 108.5 45 39.2 0 79.3-14.5 106.2-40.5 30.3-29.3 44.9-72.7 44.9-117 0-38.4-14.6-87-38.6-108.4C231.5 20.5 196.1 0 151.1 0z" fill="#ebb03b"/><g id="_Grupo_3" data-name="&lt;Grupo&gt;"><g id="_Grupo_4" data-name="&lt;Grupo&gt;"><g id="_Grupo_5" data-name="&lt;Grupo&gt;"><path id="_Trazado_2" data-name="&lt;Trazado&gt;" class="cls-2" d="M88.1 84.7a3.17 3.17 0 0 1-2.5-1.2l-14-17.7a3.06 3.06 0 0 1 .5-4.4 3.19 3.19 0 0 1 4.5.5l14 17.7a3.19 3.19 0 0 1-.5 4.5 3.61 3.61 0 0 1-2 .6z"/></g><g id="_Grupo_6" data-name="&lt;Grupo&gt;"><path id="_Trazado_3" data-name="&lt;Trazado&gt;" class="cls-2" d="M59.2 118.6a3.45 3.45 0 0 1-1.3-.3L24.7 104a3.2 3.2 0 0 1 2.5-5.9l33.2 14.3a3.32 3.32 0 0 1 1.7 4.2 3.09 3.09 0 0 1-2.9 2z"/></g><g id="_Grupo_7" data-name="&lt;Grupo&gt;"><path id="_Trazado_4" data-name="&lt;Trazado&gt;" class="cls-2" d="M282.3 225.7a5 5 0 0 1-1.2-.2l-41.6-17.1a3.14 3.14 0 0 1 2.4-5.8l41.6 17.1a3.11 3.11 0 0 1-1.2 6z"/></g><g id="_Grupo_8" data-name="&lt;Grupo&gt;"><path id="_Trazado_5" data-name="&lt;Trazado&gt;" class="cls-2" d="M272.6 163.8h-.2l-22.6-1.3a3.15 3.15 0 0 1 .3-6.3l22.6 1.3a3.15 3.15 0 0 1-.1 6.3z"/></g><g id="_Grupo_9" data-name="&lt;Grupo&gt;"><path id="_Trazado_6" data-name="&lt;Trazado&gt;" class="cls-2" d="M238.8 118.3a3.15 3.15 0 0 1-2.9-1.9 3.19 3.19 0 0 1 1.6-4.2l36.9-16.3a3.18 3.18 0 0 1 2.6 5.8L240.1 118a2.77 2.77 0 0 1-1.3.3z"/></g><g id="_Grupo_10" data-name="&lt;Grupo&gt;"><path id="_Trazado_7" data-name="&lt;Trazado&gt;" class="cls-2" d="M211 86.3a3.44 3.44 0 0 1-2.1-.8 3.17 3.17 0 0 1-.3-4.5l14.7-17.2a3.19 3.19 0 1 1 4.8 4.2l-14.7 17.2a3.19 3.19 0 0 1-2.4 1.1z"/></g><g id="_Grupo_11" data-name="&lt;Grupo&gt;"><path id="_Trazado_8" data-name="&lt;Trazado&gt;" class="cls-2" d="M66.7 257.2a3.44 3.44 0 0 1-2.1-.8 3.17 3.17 0 0 1-.3-4.5L79 234.7a3.19 3.19 0 1 1 4.8 4.2l-14.7 17.2a3.19 3.19 0 0 1-2.4 1.1z"/></g><g id="_Grupo_12" data-name="&lt;Grupo&gt;"><path id="_Trazado_9" data-name="&lt;Trazado&gt;" class="cls-2" d="M19.9 219.6a3.15 3.15 0 0 1-2.9-1.9 3.19 3.19 0 0 1 1.6-4.2l39.4-17a3.18 3.18 0 0 1 2.6 5.8l-39.4 17a3.08 3.08 0 0 1-1.3.3z"/></g><g id="_Grupo_13" data-name="&lt;Grupo&gt;"><path id="_Trazado_10" data-name="&lt;Trazado&gt;" class="cls-2" d="M49.4 161.8l-22.6-.1a3.2 3.2 0 0 1 0-6.4l22.6.1a3.2 3.2 0 0 1 0 6.4z"/></g><g id="_Grupo_14" data-name="&lt;Grupo&gt;"><path id="_Trazado_11" data-name="&lt;Trazado&gt;" class="cls-2" d="M225.1 254a2.57 2.57 0 0 1-2-.8l-17.3-14.6a3.19 3.19 0 0 1 4.1-4.9l17.3 14.6a3.27 3.27 0 0 1 .4 4.5 3.32 3.32 0 0 1-2.5 1.2z"/></g></g><g id="_Grupo_15" data-name="&lt;Grupo&gt;"><g id="_Grupo_16" data-name="&lt;Grupo&gt;"><path id="_Trazado_12" data-name="&lt;Trazado&gt;" class="cls-2" d="M142.3 280.3v-.2l2-22.5a3.16 3.16 0 1 1 6.3.5l-2 22.5a3.28 3.28 0 0 1-3.4 2.9 3.09 3.09 0 0 1-2.9-3.2z"/></g><g id="_Grupo_17" data-name="&lt;Grupo&gt;"><path id="_Trazado_13" data-name="&lt;Trazado&gt;" class="cls-2" d="M145.2 57.3l-.5-22.6a3.08 3.08 0 0 1 3.1-3.2 3.14 3.14 0 0 1 3.2 3.1l.5 22.6a3.08 3.08 0 0 1-3.1 3.2 3.2 3.2 0 0 1-3.2-3.1z"/></g></g></g></g><path id="_Trazado_14" data-name="&lt;Trazado&gt;" d="M158.3 226.3c-5.4 3.7-8.1 3.9-13.6.2-35-23.4-69.1-62.9-67.8-87.1 1.4-26.3 13.4-43 40.9-40.9s31.1 14.2 33.1 16.9 10.7-24.4 49.3-13.5 24.4 46 12.7 67.4c-10.6 19.5-25 36.7-54.6 57z" fill="#f8fafb"/></g></svg>