<svg id="Capa_1" data-name="Capa 1" xmlns="http://www.w3.org/2000/svg" viewBox="0 0 269.88 315"><defs><style>.cls-3{fill:#f7f9fa}</style></defs><g id="_Grupo_" data-name="&lt;Grupo&gt;"><path id="_Trazado_" data-name="&lt;Trazado&gt;" d="M134.73 315c-13 0-78-56-99.5-98.2-19.9-39-24.2-54-27.6-69.8s-8.8-77-7.4-89 131-58 134.5-58S267.13 53.8 268 57.5c6.2 28 .5 136.1-75.3 213.5-24.97 25.5-50.97 44-57.97 44z" fill="#7daff8"/><path id="_Trazado_2" data-name="&lt;Trazado&gt;" d="M18.23 71.5c-3.8 4.5.9 55.5 10.1 87.8s44.6 84.8 59.2 98.2 39.5 36 47 36 60.6-47.4 72.1-64.5 36.6-62.4 40.8-98 8.6-56.1 3.4-59.6-68.2-28.8-80.7-35c-9.3-4.6-28.4-13-35.5-13s-44.7 17.8-57.2 23.3-55.5 21.2-59.2 24.8z" fill="#a3cbf7"/><g id="_Grupo_2" data-name="&lt;Grupo&gt;"><path id="_Trazado_3" data-name="&lt;Trazado&gt;" class="cls-3" d="M74 127.4a27.37 27.37 0 0 1-16-1.2C47.6 122 43.2 113 42.4 104.5c-1-10.5 1.8-20.3 9.3-24.5s21.5-8 29-2.5 14.5 15.7 14 24-6.5 18.8-11.5 22a26.63 26.63 0 0 1-9.2 3.9z"/><path id="_Trazado_4" data-name="&lt;Trazado&gt;" class="cls-3" d="M175.23 104.2c-.3-13.5 6.5-20.9 13.5-25.3s20.8-5.2 28.3 1.6 14.7 23.5 8 32.8-11.7 14.4-26.2 13.8-17.4-7.5-20.4-12a18.25 18.25 0 0 1-3.2-10.9z"/><path id="_Trazado_5" data-name="&lt;Trazado&gt;" class="cls-3" d="M131.43 187.7c10-1 18.3 2.5 24.3 10.5s6.9 17.8 1.8 27.8-14.1 14-23.6 13.5-20.5-9.3-24.2-17-1.8-14.8 0-19.5 11.4-14.2 21.7-15.3z"/><path id="_Trazado_6" data-name="&lt;Trazado&gt;" class="cls-3" d="M151.43 201.5c8.5-12.3 12.5-22.3 21.5-36.8s23.3-40 25.3-44.8-11.4-4.4-13-1.3-12.3 24.8-15 29-12.3 21.3-17.3 29a139 139 0 0 0-10 17.8c-1.7 3.8 8.5 7.1 8.5 7.1z"/><path id="_Trazado_7" data-name="&lt;Trazado&gt;" class="cls-3" d="M71.13 120c6.1 13.6 12.6 22.2 20.3 37.4s22.2 40.6 25.2 44.8 9.7-7.4 7.8-10.5-14.8-23.3-17.1-27.8-11.8-21.5-15.9-29.8a143 143 0 0 0-10-17.7c-2.2-3.5-10.3 3.6-10.3 3.6z"/><path id="_Trazado_8" data-name="&lt;Trazado&gt;" class="cls-3" d="M89.73 106.8c14.9 1.2 25.5-.3 42.6.2s46.3.1 51.4-.6-1.9-12-5.4-11.9-27.6 1.8-32.6 1.5-24.5 0-33.7-.4a179.14 179.14 0 0 0-20.4.2c-4.3.5-1.9 11-1.9 11z"/></g></g></svg>