<svg id="Capa_1" data-name="Capa 1" xmlns="http://www.w3.org/2000/svg" viewBox="0 0 315 315"><defs><style>.cls-2{fill:#f0d05b}</style></defs><g id="_Grupo_" data-name="&lt;Grupo&gt;"><g id="_Grupo_2" data-name="&lt;Grupo&gt;"><path id="_Trazado_" data-name="&lt;Trazado&gt;" d="M100.59 120.51a7.39 7.39 0 0 1 7.54 7.32c.7 24 1.42 50-.86 68.9-1.4 12.09.35 29.16 24.35 28.85s50.14-.31 54.35.12c5.09.59 24.53 5.81 24.29-19.22-.39-24.95-.67-54.74-.91-71.19s2.39-16.39 10.73-16.47 24.74 3.1 26.51-2.79-1-16-20.12-35.41C204.09 58 172.58 10.42 167.29 5.94c-5.21-4.32-14.5-12.34-34.23 18.52C111.29 58.35 90.6 80.72 81 93.6c-9.81 12.81-22.39 27.23-2.61 26.88z" fill="#ebb03b"/><g id="_Grupo_3" data-name="&lt;Grupo&gt;"><path id="_Trazado_2" data-name="&lt;Trazado&gt;" class="cls-2" d="M162.6 308.15a5.16 5.16 0 0 1-10.31 0v-56.86a5.16 5.16 0 0 1 10.31 0z"/><path id="_Trazado_3" data-name="&lt;Trazado&gt;" class="cls-2" d="M202.33 300.85h-.7a5.15 5.15 0 0 1-5-4.45l-6.44-44.29a5 5 0 0 1 4.33-5.74 5.24 5.24 0 0 1 5.86 4.34l6.4 44.29a5.25 5.25 0 0 1-4.45 5.85z"/><path id="_Trazado_4" data-name="&lt;Trazado&gt;" class="cls-2" d="M118.3 296.52a5.15 5.15 0 0 1-5 4.45h-.7a5.12 5.12 0 0 1-4.33-5.74l6.44-44.29a5.14 5.14 0 0 1 10.19 1.41z"/></g></g><path id="_Trazado_5" data-name="&lt;Trazado&gt;" fill="none" d="M0 0h315v315H0z"/></g></svg>